<svg width="21" height="25" viewBox="0 0 21 25" fill="none" xmlns="http://www.w3.org/2000/svg">
<path fill-rule="evenodd" clip-rule="evenodd" d="M14.1509 0.333496C18.1083 0.333496 20.3786 2.29233 20.3786 5.70483V22.6635C20.3786 23.3752 20.0123 24.0157 19.3963 24.3738C18.7826 24.7332 18.0429 24.7402 17.4223 24.3902L10.4689 20.462L3.45142 24.3983C3.14809 24.5687 2.81559 24.655 2.48192 24.655C2.13776 24.655 1.79359 24.5628 1.48092 24.3785C0.866089 24.0203 0.499756 23.3798 0.499756 22.6693V5.49133C0.499756 2.213 2.77126 0.333496 6.73209 0.333496H14.1509ZM14.1509 2.0835H6.73209C3.75826 2.0835 2.24976 3.22916 2.24976 5.49133V22.6693C2.24976 22.779 2.31276 22.8385 2.36526 22.8688C2.41776 22.9015 2.50059 22.9248 2.59626 22.8712L10.0419 18.6945C10.3079 18.5463 10.6334 18.5452 10.9006 18.6957L18.2821 22.8653C18.3789 22.9213 18.4618 22.8957 18.5143 22.8642C18.5668 22.8327 18.6286 22.7732 18.6286 22.6635L18.6282 5.57188C18.6193 4.56777 18.4251 2.0835 14.1509 2.0835ZM14.6629 8.18341C15.1459 8.18341 15.5379 8.57541 15.5379 9.05841C15.5379 9.54141 15.1459 9.93341 14.6629 9.93341H6.12519C5.64219 9.93341 5.25019 9.54141 5.25019 9.05841C5.25019 8.57541 5.64219 8.18341 6.12519 8.18341H14.6629Z" fill="#1C1C1C"/>
</svg>
