<svg width="24" height="23" viewBox="0 0 24 23" fill="none" xmlns="http://www.w3.org/2000/svg">
<path d="M4.56217 1.95833C3.8273 1.95833 3.12253 2.25026 2.6029 2.76989C2.08327 3.28952 1.79134 3.9943 1.79134 4.72917V13.7708C1.79134 14.5057 2.08327 15.2105 2.6029 15.7301C3.12253 16.2497 3.8273 16.5417 4.56217 16.5417H6.45801V21.1138L12.9348 16.5417H19.4372C20.172 16.5417 20.8768 16.2497 21.3965 15.7301C21.9161 15.2105 22.208 14.5057 22.208 13.7708V4.72917C22.208 3.9943 21.9161 3.28952 21.3965 2.76989C20.8768 2.25026 20.172 1.95833 19.4372 1.95833H4.56217ZM0.333008 4.72917C0.333008 3.60752 0.77858 2.53182 1.5717 1.73869C2.36482 0.945572 3.44053 0.5 4.56217 0.5H19.4372C20.5588 0.5 21.6345 0.945572 22.4276 1.73869C23.2208 2.53182 23.6663 3.60752 23.6663 4.72917V13.7708C23.6663 14.8925 23.2208 15.9682 22.4276 16.7613C21.6345 17.5544 20.5588 18 19.4372 18H13.3979L7.06876 22.4672C6.19959 23.0808 4.99967 22.459 4.99967 21.395V18H4.56217C3.44053 18 2.36482 17.5544 1.5717 16.7613C0.77858 15.9682 0.333008 14.8925 0.333008 13.7708V4.72917Z" fill="black"/>
</svg>
