<svg width="23" height="24" viewBox="0 0 23 24" fill="none" xmlns="http://www.w3.org/2000/svg">
<path fill-rule="evenodd" clip-rule="evenodd" d="M11.3909 0.666504C17.5799 0.666504 22.6153 5.70184 22.6153 11.8909C22.6153 18.08 17.5799 23.1153 11.3909 23.1153C5.20178 23.1153 0.166443 18.08 0.166443 11.8909C0.166443 5.70184 5.20178 0.666504 11.3909 0.666504ZM11.3909 2.2915C6.09769 2.2915 1.79144 6.59884 1.79144 11.8909C1.79144 17.1841 6.09769 21.4903 11.3909 21.4903C16.684 21.4903 20.9903 17.1841 20.9903 11.8909C20.9903 6.59884 16.684 2.2915 11.3909 2.2915ZM15.5851 7.69723C15.7985 7.91173 15.8765 8.22698 15.7855 8.51406L14.0608 14.0271C13.9818 14.2817 13.7813 14.4811 13.5278 14.5601L8.01476 16.2859C7.93459 16.3108 7.85226 16.3227 7.77209 16.3227C7.55976 16.3227 7.35176 16.2393 7.19684 16.0855C6.98343 15.871 6.90543 15.5557 6.99643 15.2686L8.72218 9.75556C8.80126 9.4999 9.00059 9.30165 9.25409 9.22256L14.7672 7.49681C15.0564 7.40473 15.3706 7.48381 15.5851 7.69723ZM13.7716 9.51073L10.1457 10.6461L9.01143 14.272L12.6363 13.1366L13.7716 9.51073Z" fill="#A3A3A3"/>
</svg>
