<svg width="21" height="23" viewBox="0 0 21 23" fill="none" xmlns="http://www.w3.org/2000/svg">
<path d="M7.39601 21.0043V17.6918C7.39601 16.8462 8.08652 16.1607 8.93831 16.1607H12.052C12.461 16.1607 12.8533 16.322 13.1426 16.6091C13.4318 16.8962 13.5943 17.2857 13.5943 17.6918V21.0043C13.5917 21.3558 13.7306 21.6939 13.9801 21.9434C14.2296 22.1929 14.5691 22.3332 14.9232 22.3332H17.0475C18.0396 22.3357 18.992 21.9463 19.6944 21.2507C20.3969 20.5552 20.7917 19.6107 20.7917 18.6258V9.18893C20.7917 8.39334 20.4364 7.63867 19.8217 7.12823L12.5952 1.3987C11.3381 0.394112 9.53704 0.426548 8.31751 1.47573L1.25593 7.12823C0.612138 7.62362 0.227351 8.38053 0.208336 9.18893V18.6162C0.208336 20.669 1.88467 22.3332 3.95252 22.3332H6.02832C6.76383 22.3332 7.36158 21.7441 7.36691 21.0139L7.39601 21.0043Z" fill="#0B5351"/>
</svg>
