<svg width="24" height="20" viewBox="0 0 24 20" fill="none" xmlns="http://www.w3.org/2000/svg">
<path fill-rule="evenodd" clip-rule="evenodd" d="M11.8773 12.1153L11.9996 12.1154L12.2732 12.1163C14.3647 12.1301 19.1443 12.3413 19.1443 15.5809C19.1443 18.7992 14.5313 19.0091 12.3058 19.0228L11.4813 19.0228C9.38968 19.009 4.60917 18.798 4.60917 15.5625C4.60917 12.3401 9.38968 12.13 11.4813 12.1163L11.7549 12.1154C11.7974 12.1153 11.8382 12.1153 11.8773 12.1153ZM11.8773 13.7403C9.30325 13.7403 6.23417 14.0567 6.23417 15.5625C6.23417 17.0343 9.12007 17.3783 11.642 17.3978L11.8773 17.3987C14.4513 17.3987 17.5193 17.0835 17.5193 15.5809C17.5193 14.0599 14.4513 13.7403 11.8773 13.7403ZM20.4937 11.6757C23.1186 12.069 23.67 13.3018 23.67 14.267C23.67 14.8564 23.4382 15.9321 21.889 16.5225C21.7937 16.5583 21.6962 16.5756 21.5997 16.5756C21.2726 16.5756 20.9638 16.3763 20.8403 16.0524C20.68 15.6331 20.8912 15.163 21.3105 15.0037C22.045 14.7242 22.045 14.4155 22.045 14.267C22.045 13.7925 21.4416 13.461 20.2521 13.2834C19.809 13.2162 19.5024 12.8035 19.5685 12.3582C19.6346 11.914 20.0462 11.6183 20.4937 11.6757ZM4.18494 12.3582C4.25102 12.8035 3.94444 13.2162 3.50135 13.2834C2.31185 13.461 1.70844 13.7925 1.70844 14.267C1.70844 14.4155 1.70844 14.7231 2.44402 15.0037C2.86327 15.163 3.07452 15.6331 2.91419 16.0524C2.79069 16.3763 2.48194 16.5756 2.15477 16.5756C2.05835 16.5756 1.96085 16.5583 1.86552 16.5225C0.315268 15.931 0.0834351 14.8553 0.0834351 14.267C0.0834351 13.3029 0.634852 12.069 3.26085 11.6757C3.70827 11.6194 4.11777 11.914 4.18494 12.3582ZM11.8773 0.833496C14.6073 0.833496 16.827 3.05433 16.827 5.78325C16.827 8.51216 14.6073 10.733 11.8773 10.733H11.848C10.5263 10.7287 9.28808 10.2108 8.36075 9.27483C7.43125 8.33991 6.92317 7.09841 6.92854 5.78C6.92854 3.05433 9.14833 0.833496 11.8773 0.833496ZM11.8773 2.4585C10.0443 2.4585 8.55356 3.95025 8.55356 5.78325C8.55033 6.67158 8.8905 7.5025 9.51342 8.12975C10.1363 8.757 10.9662 9.10475 11.8502 9.108L11.8773 9.9205V9.108C13.7103 9.108 15.202 7.61733 15.202 5.78325C15.202 3.95025 13.7103 2.4585 11.8773 2.4585ZM18.582 1.89462C20.4865 2.2077 21.8699 3.83704 21.8699 5.76862C21.8656 7.7132 20.4128 9.38154 18.4899 9.65129C18.452 9.6567 18.4141 9.65887 18.3773 9.65887C17.9786 9.65887 17.6308 9.36529 17.5734 8.95904C17.5117 8.51379 17.8204 8.1032 18.2657 8.04145C19.3923 7.88329 20.2428 6.90612 20.2449 5.76645C20.2449 4.63654 19.4346 3.68104 18.3177 3.49795C17.8757 3.42537 17.5756 3.0072 17.6482 2.56412C17.7218 2.12104 18.1368 1.8242 18.582 1.89462ZM6.10634 2.56412C6.17892 3.0072 5.87884 3.42537 5.43684 3.49795C4.31992 3.68104 3.50959 4.63654 3.50959 5.76862C3.51175 6.90612 4.36217 7.88437 5.48775 8.04145C5.933 8.1032 6.24175 8.51379 6.18 8.95904C6.12258 9.36529 5.77484 9.65887 5.37617 9.65887C5.33934 9.65887 5.30142 9.6567 5.2635 9.65129C3.34059 9.38154 1.88892 7.7132 1.88459 5.77079C1.88459 3.83704 3.268 2.2077 5.1725 1.89462C5.62859 1.82312 6.03267 2.1232 6.10634 2.56412Z" fill="#A3A3A3"/>
</svg>
