<svg width="24" height="23" viewBox="0 0 24 23" fill="none" xmlns="http://www.w3.org/2000/svg">
<path d="M21.3334 7.3335H14.786L16.0962 3.40533C16.3319 2.696 16.2129 1.90966 15.7754 1.303C15.3379 0.69633 14.6285 0.333496 13.8807 0.333496H12C11.6535 0.333496 11.3257 0.487496 11.1029 0.753496L5.61954 7.3335H2.66671C1.37987 7.3335 0.333374 8.38 0.333374 9.66683V20.1668C0.333374 21.4537 1.37987 22.5002 2.66671 22.5002H18.1915C18.6662 22.4986 19.1293 22.353 19.5195 22.0826C19.9096 21.8122 20.2086 21.4298 20.3767 20.9858L23.5932 12.4097C23.642 12.2787 23.6669 12.14 23.6667 12.0002V9.66683C23.6667 8.38 22.6202 7.3335 21.3334 7.3335ZM2.66671 9.66683H5.00004V20.1668H2.66671V9.66683ZM21.3334 11.789L18.1915 20.1668H7.33337V8.9225L12.546 2.66683H13.883L12.0607 8.13033C12.0015 8.3057 11.985 8.49264 12.0126 8.67566C12.0401 8.85868 12.1109 9.0325 12.219 9.18271C12.3271 9.33292 12.4695 9.45519 12.6343 9.53938C12.7991 9.62358 12.9816 9.66727 13.1667 9.66683H21.3334V11.789Z" fill="#1C1C1C"/>
</svg>
