<svg width="174" height="174" viewBox="0 0 174 174" fill="none" xmlns="http://www.w3.org/2000/svg">
<path d="M83.0853 21.8441L25.9727 75.0151V75.1056H148.031V75.0151L90.9181 21.8441C88.7126 19.7881 85.2908 19.7881 83.0853 21.8441Z" fill="#2B6BE9"/>
<path d="M25.9727 75.1056H148.031V142.36H25.9727V75.1056Z" fill="#1E4CA8"/>
<path d="M117.594 82.5259V133.866C117.594 137.909 112.879 141.192 107.071 141.192H64.2586C58.4513 141.192 53.7363 137.909 53.7363 133.866V82.5259C53.7363 78.4826 58.4513 75.1998 64.2586 75.1998H107.071C112.879 75.1998 117.594 78.4826 117.594 82.5259Z" fill="white"/>
<path d="M117.594 82.5259V133.866C117.594 137.909 112.879 141.192 107.071 141.192H64.2586C58.4513 141.192 53.7363 137.909 53.7363 133.866V82.5259C53.7363 78.4826 58.4513 75.1998 64.2586 75.1998H107.071C112.879 75.1998 117.594 78.4826 117.594 82.5259Z" stroke="#CCCCCC" stroke-width="1.75599"/>
<path d="M26.1642 75.1224L147.193 141.857C147.124 142.126 147.132 142.09 147.063 142.36H26.2441C26.0947 142.36 25.9727 142.238 25.9727 142.088V75.2361C25.9727 75.1372 26.0779 75.074 26.1642 75.1224Z" fill="#2B6BE9"/>
<path d="M147.839 75.1225L87.002 108.67L147.193 141.857C147.124 142.124 147.132 142.092 147.063 142.36H147.76C147.909 142.36 148.031 142.238 148.031 142.088V75.234C148.031 75.1372 147.926 75.0741 147.839 75.1225Z" fill="#6C94E2"/>
<g opacity="0.0599967">
<path d="M87.002 115.843C79.0908 115.843 72.6545 109.407 72.6545 101.495C72.6545 93.5842 79.0908 87.148 87.002 87.148C94.9133 87.148 101.35 93.5842 101.35 101.495C101.35 109.407 94.9133 115.843 87.002 115.843ZM98.4939 90.0035C95.4243 86.934 91.3431 85.2434 87.002 85.2434C82.6609 85.2434 78.5796 86.934 75.5101 90.0035C72.4405 93.0731 70.75 97.1544 70.75 101.495C70.75 105.837 72.4405 109.918 75.5101 112.987C78.5797 116.057 82.6609 117.747 87.002 117.747C91.3431 117.747 95.4243 116.057 98.4939 112.987C101.564 109.918 103.254 105.837 103.254 101.495C103.254 97.1544 101.564 93.0732 98.4939 90.0035Z" fill="#54B7A6"/>
<path d="M94.7668 96.2808C94.395 95.9091 93.792 95.9091 93.4202 96.2809L85.0112 104.69L80.5846 100.263C80.2128 99.8916 79.6098 99.8916 79.2379 100.263C78.866 100.635 78.866 101.238 79.2379 101.61L84.3377 106.71C84.5237 106.896 84.7674 106.989 85.0111 106.989C85.2547 106.989 85.4986 106.896 85.6844 106.71L94.7668 97.6275C95.1387 97.2557 95.1387 96.6527 94.7668 96.2808Z" fill="#54B7A6"/>
</g>
<path d="M83.0853 21.8441L25.9727 75.0151V75.1056H148.031V75.0151L90.9181 21.8441C88.7126 19.7881 85.2908 19.7881 83.0853 21.8441Z" fill="#0B5351"/>
<path d="M25.9727 75.1056H148.031V142.36H25.9727V75.1056Z" fill="#0B5351"/>
<path d="M117.594 51.6153V102.955C117.594 106.998 112.879 110.281 107.071 110.281H64.2586C58.4513 110.281 53.7363 106.998 53.7363 102.955V51.6153C53.7363 47.572 58.4513 44.2892 64.2586 44.2892H107.071C112.879 44.2892 117.594 47.572 117.594 51.6153Z" fill="white"/>
<path d="M117.594 51.6153V102.955C117.594 106.998 112.879 110.281 107.071 110.281H64.2586C58.4513 110.281 53.7363 106.998 53.7363 102.955V51.6153C53.7363 47.572 58.4513 44.2892 64.2586 44.2892H107.071C112.879 44.2892 117.594 47.572 117.594 51.6153Z" stroke="#CCCCCC" stroke-width="1.75599"/>
<path d="M26.1642 75.1224L147.193 141.857C147.124 142.126 147.132 142.09 147.063 142.36H26.2441C26.0947 142.36 25.9727 142.238 25.9727 142.088V75.2361C25.9727 75.1372 26.0779 75.074 26.1642 75.1224Z" fill="#0B5351"/>
<path d="M147.839 75.1225L87.002 108.67L147.193 141.857C147.124 142.124 147.132 142.092 147.063 142.36H147.76C147.909 142.36 148.031 142.238 148.031 142.088V75.234C148.031 75.1372 147.926 75.0741 147.839 75.1225Z" fill="#1F7B87"/>
<g opacity="0.895185">
<path d="M87.002 89.9431C79.0908 89.9431 72.6545 83.5069 72.6545 75.5956C72.6545 67.6844 79.0908 61.2481 87.002 61.2481C94.9133 61.2481 101.35 67.6844 101.35 75.5956C101.35 83.5069 94.9133 89.9431 87.002 89.9431ZM98.4939 64.1037C95.4243 61.0341 91.3431 59.3436 87.002 59.3436C82.6609 59.3436 78.5796 61.0341 75.5101 64.1037C72.4405 67.1733 70.75 71.2546 70.75 75.5956C70.75 79.9367 72.4405 84.0179 75.5101 87.0875C78.5797 90.1571 82.6609 91.8477 87.002 91.8477C91.3431 91.8477 95.4243 90.1571 98.4939 87.0875C101.564 84.0179 103.254 79.9367 103.254 75.5956C103.254 71.2546 101.564 67.1733 98.4939 64.1037Z" fill="#54B7A6"/>
<path d="M94.7668 70.381C94.395 70.0092 93.792 70.0092 93.4202 70.3811L85.0112 78.7901L80.5846 74.3636C80.2128 73.9917 79.6098 73.9917 79.2379 74.3636C78.866 74.7354 78.866 75.3384 79.2379 75.7103L84.3377 80.8102C84.5237 80.9961 84.7674 81.089 85.0111 81.089C85.2547 81.089 85.4986 80.996 85.6844 80.8102L94.7668 71.7277C95.1387 71.3559 95.1387 70.7529 94.7668 70.381Z" fill="#54B7A6"/>
</g>
</svg>
