<svg width="18" height="16" viewBox="0 0 18 16" fill="none" xmlns="http://www.w3.org/2000/svg">
<path d="M13.1653 0.243652C14.3281 0.243652 15.4466 0.703196 16.2694 1.52777C17.0931 2.35062 17.5535 3.46046 17.5535 4.62232V11.4721C17.5535 13.8912 15.5853 15.8508 13.1653 15.8508H4.59962C2.17965 15.8508 0.21228 13.8912 0.21228 11.4721V4.62232C0.21228 2.20322 2.17098 0.243652 4.59962 0.243652H13.1653ZM14.146 4.75238C13.9639 4.74284 13.7905 4.80441 13.6596 4.9258L9.74998 8.04722C9.24708 8.46428 8.52655 8.46428 8.01585 8.04722L4.11407 4.9258C3.84441 4.72637 3.47157 4.75238 3.247 4.98649C3.01289 5.2206 2.98688 5.59343 3.18544 5.85355L3.29903 5.96627L7.24416 9.04435C7.72972 9.42585 8.31846 9.63395 8.93494 9.63395C9.54969 9.63395 10.1488 9.42585 10.6335 9.04435L14.5448 5.91425L14.6142 5.84488C14.8214 5.59343 14.8214 5.22927 14.6047 4.97782C14.4841 4.84863 14.3185 4.76972 14.146 4.75238Z" fill="#0B5351"/>
</svg>
