<svg width="16" height="18" viewBox="0 0 16 18" fill="none" xmlns="http://www.w3.org/2000/svg">
<path d="M6.2581 15.3142C6.69156 15.2225 9.33279 15.2225 9.76625 15.3142C10.1368 15.3997 10.5375 15.5997 10.5375 16.0364C10.516 16.452 10.2721 16.8206 9.93515 17.0546C9.49825 17.3952 8.98551 17.6109 8.44951 17.6886C8.15307 17.727 7.8618 17.7279 7.5757 17.6886C7.03884 17.6109 6.5261 17.3952 6.09006 17.0537C5.75226 16.8206 5.50839 16.452 5.48684 16.0364C5.48684 15.5997 5.88755 15.3997 6.2581 15.3142ZM8.06336 0.376465C9.86699 0.376465 11.7094 1.23227 12.8038 2.65222C13.5139 3.56653 13.8396 4.47998 13.8396 5.89992V6.26932C13.8396 7.35829 14.1274 8.00014 14.7608 8.73981C15.2408 9.28473 15.3942 9.98422 15.3942 10.7431C15.3942 11.5011 15.1452 12.2207 14.6462 12.8049C13.993 13.5053 13.0718 13.9524 12.1316 14.0301C10.7692 14.1462 9.40596 14.2441 8.02459 14.2441C6.64235 14.2441 5.27994 14.1855 3.91753 14.0301C2.97651 13.9524 2.0553 13.5053 1.40297 12.8049C0.904019 12.2207 0.654114 11.5011 0.654114 10.7431C0.654114 9.98422 0.808365 9.28473 1.28749 8.73981C1.94069 8.00014 2.20956 7.35829 2.20956 6.26932V5.89992C2.20956 4.44155 2.57321 3.48794 3.32206 2.55441C4.43543 1.19298 6.2201 0.376465 7.98581 0.376465H8.06336Z" fill="#0B5351"/>
</svg>
