<svg width="24" height="24" viewBox="0 0 24 24" fill="none" xmlns="http://www.w3.org/2000/svg">
<path fill-rule="evenodd" clip-rule="evenodd" d="M10.6057 14.2876L14.8722 21.2094C15.0589 21.5128 15.3505 21.5093 15.4684 21.4929C15.5862 21.4766 15.8697 21.4043 15.9724 21.0601L21.3075 3.04094C21.4009 2.72244 21.2294 2.50544 21.1524 2.42844C21.0777 2.35144 20.8642 2.18694 20.555 2.27444L2.52302 7.55477C2.18119 7.6551 2.10652 7.9421 2.09019 8.05994C2.07385 8.1801 2.06919 8.4776 2.37135 8.66777L9.37252 13.0463L15.5582 6.79527C15.8977 6.45227 16.4519 6.44877 16.796 6.78827C17.1402 7.12777 17.1425 7.6831 16.803 8.0261L10.6057 14.2876ZM15.3774 23.2499C14.5654 23.2499 13.821 22.8369 13.3824 22.1276L8.85919 14.7881L1.44385 10.1506C0.644688 9.6501 0.227021 8.75877 0.356521 7.82194C0.484854 6.8851 1.12769 6.14077 2.03069 5.87594L20.0627 0.595604C20.8922 0.352937 21.7812 0.58277 22.3925 1.19177C23.0039 1.8066 23.2314 2.70494 22.984 3.53794L17.6489 21.5559C17.3817 22.4624 16.635 23.1029 15.7005 23.2278C15.5909 23.2418 15.4847 23.2499 15.3774 23.2499Z" fill="#1C1C1C"/>
</svg>
