<svg width="28" height="21" viewBox="0 0 28 21" fill="none" xmlns="http://www.w3.org/2000/svg">
<path d="M14.2831 13.6596C18.4647 13.6596 22.0352 14.3225 22.0352 16.9754C22.0352 19.6271 18.4876 20.3142 14.2831 20.3142C10.1015 20.3142 6.53097 19.6513 6.53097 16.9995C6.53097 14.3467 10.0786 13.6596 14.2831 13.6596ZM20.9689 12.0622C22.5676 12.0326 24.2863 12.2521 24.9214 12.4079C26.2668 12.6725 27.1518 13.2125 27.5185 13.9972C27.8284 14.6415 27.8284 15.3889 27.5185 16.0321C26.9576 17.2493 25.1494 17.6401 24.4467 17.741C24.3015 17.763 24.1848 17.6368 24.2001 17.4908C24.5591 14.118 21.7033 12.5188 20.9646 12.1511C20.9329 12.1346 20.9264 12.1094 20.9296 12.094C20.9318 12.0831 20.9449 12.0655 20.9689 12.0622ZM7.42122 12.0599L7.72226 12.0626C7.74627 12.0659 7.75828 12.0835 7.76046 12.0934C7.76373 12.1098 7.75718 12.134 7.72663 12.1515C6.98678 12.5192 4.13103 14.1184 4.49004 17.4901C4.50532 17.6372 4.38965 17.7623 4.24452 17.7415C3.54176 17.6405 1.7336 17.2498 1.1727 16.0326C0.861703 15.3883 0.861703 14.6419 1.1727 13.9977C1.53936 13.2129 2.42325 12.6729 3.76874 12.4073C4.40493 12.2525 6.12252 12.033 7.72226 12.0626L7.42122 12.0599ZM14.2831 0.814941C17.1301 0.814941 19.4129 3.10887 19.4129 5.97353C19.4129 8.8371 17.1301 11.1332 14.2831 11.1332C11.436 11.1332 9.15319 8.8371 9.15319 5.97353C9.15319 3.10887 11.436 0.814941 14.2831 0.814941ZM21.2472 1.67522C23.9971 1.67522 26.1566 4.27756 25.4211 7.17625C24.9246 9.12773 23.1274 10.424 21.125 10.3713C20.9242 10.3658 20.7267 10.3471 20.5357 10.3142C20.3971 10.2901 20.3273 10.1331 20.4058 10.0168C21.1697 8.88627 21.6051 7.52637 21.6051 6.0666C21.6051 4.54317 21.1293 3.12292 20.3033 1.95839C20.2771 1.92217 20.2574 1.8662 20.2836 1.82449C20.3055 1.79046 20.3458 1.7729 20.384 1.76412C20.6623 1.70705 20.9482 1.67522 21.2472 1.67522ZM7.44236 1.67511C7.74136 1.67511 8.02726 1.70694 8.30662 1.76401C8.34372 1.77279 8.38519 1.79145 8.40701 1.82438C8.43211 1.86609 8.41356 1.92206 8.38737 1.95828C7.56131 3.12281 7.08553 4.54306 7.08553 6.06649C7.08553 7.52626 7.52093 8.88616 8.28479 10.0167C8.36336 10.133 8.29352 10.29 8.15494 10.3141C7.96288 10.3481 7.76646 10.3657 7.56567 10.3712C5.56327 10.4239 3.76601 9.12762 3.2695 7.17614C2.53292 4.27745 4.69246 1.67511 7.44236 1.67511Z" fill="#1C1C1C"/>
</svg>
